<svg version="1.1" id="Layer_1" xmlns="http://www.w3.org/2000/svg" x="0" y="0" viewBox="0 0 1772 1772" style="enable-background:new 0 0 1772 1772" xml:space="preserve"><circle cx="886" cy="886" r="800" style="fill:#fff"/><path d="M5580 12333c-14-2-52-13-85-25-161-56-281-185-333-355-16-54-17-189-19-2023-1-1081-4-2068-7-2195-14-670-180-1197-412-1311-51-25-61-26-163-22-98 4-116 8-175 37-80 39-114 78-171 196-48 99-71 176-115 380-36 169-72 245-156 334-102 109-223 161-374 161-259-1-473-186-511-446-16-102-1-214 56-439 71-282 151-474 275-659 210-313 497-505 880-587 143-31 469-34 600-6 175 38 327 101 475 198 106 70 295 259 377 379 233 338 376 785 444 1390 13 119 18 329 24 1155 5 556 13 1064 19 1130 54 604 203 1011 407 1111 51 25 61 26 163 22 98-4 116-8 175-37 36-18 79-48 96-69 48-57 115-205 152-332l32-115 6-1125c5-850 9-1136 19-1170 73-262 320-429 580-389 220 33 390 194 436 414 12 56 15 175 15 615 0 621 13 1048 35 1230 63 512 207 866 391 956 51 25 61 26 163 22 98-4 116-8 175-37 36-18 79-48 96-69 48-57 115-205 152-332l32-115 6-960c5-715 10-971 19-1005 72-262 320-429 580-389 220 33 390 194 436 414 12 59 15 222 15 1010 0 1046 2 1003-70 1283-69 266-150 456-270 636-210 313-497 505-880 587-143 31-469 34-600 6-255-55-462-163-646-339l-94-90-85 80c-185 175-399 284-675 343-142 31-469 34-600 6-72-15-200-55-262-82-16-6-18 0-18 61 0 176-55 320-162 425-114 113-288 168-448 142z" transform="matrix(.1 0 0 -.1 0 1772)"/><path d="M12905 12316c-304-51-542-178-760-407-317-331-519-871-590-1574-30-304-34-425-35-1100 0-942-17-1621-45-1865-60-505-207-866-391-956-51-25-61-26-163-22-98 4-116 8-175 37-80 39-114 78-171 196-48 99-71 176-115 380-36 169-72 245-156 334-102 109-223 161-374 161-259-1-473-186-511-446-16-102-1-214 56-439 71-282 151-474 275-659 210-313 497-505 880-587 143-31 469-34 600-6 175 38 327 101 475 198 106 70 295 259 377 379 194 280 328 646 402 1093 62 372 73 613 86 1991 5 550 14 1055 20 1121 50 595 202 1011 406 1111 51 25 61 26 163 22 98-4 116-8 175-37 80-39 114-78 171-196 48-99 71-176 115-380 36-169 72-245 156-334 102-109 223-161 374-161 259 1 473 186 511 446 16 102 1 214-56 439-71 282-151 474-275 659-208 311-499 506-875 586-129 27-430 36-550 16z" transform="matrix(.1 0 0 -.1 0 1772)"/></svg>