<svg version="1.0" xmlns="http://www.w3.org/2000/svg" width="30" height="30" viewBox="0 0 1772 1772"><path d="M1398.1 307.6c-2.9.8-21.6 8.2-41.5 16.5-50.6 21.1-124.3 52.1-155.1 65.1-25.1 10.6-80.6 33.9-208.5 87.3-33.3 13.9-79.8 33.5-103.5 43.5-23.6 10-73.1 30.8-110 46.2-79 33-100.7 42.1-187 78.3-35.7 15-86.1 36.2-112 47-156.8 65.7-151.3 63.2-159.7 73.8-8.2 10.5-11.8 20.4-11.8 33.2 0 9.4 2 17.8 5.8 24.9 3.2 6 12 15.6 17.7 19.6 9.2 6.3 10.3 6.6 96 25 52.8 11.4 99.6 21.5 134.2 29 17.7 3.8 33.6 7.2 35.4 7.5 1.8.3 16.4 3.5 32.6 7 16.2 3.6 30.6 6.7 32.1 7 1.5.3 4 .7 5.7 1.1 1.6.3 16 3.4 32 6.9 15.9 3.5 30.4 6.7 32.2 7 1.8.3 16.4 3.4 32.5 6.9 30.9 6.8 32 7.1 40.9 8.7 3 .6 6.1 1.4 6.8 1.8 1.3.8 2.3 4.6 7 27.1 1.7 8 5.3 24.8 8 37.5 10.3 47.8 42.6 197.6 70.5 327.5 16 74.6 17.8 82.5 20.2 88.8 13.2 35.2 56.9 46.7 84.6 22.3 7.1-6.3 11.7-14.1 20.1-33.7 17.7-42 118.2-281.3 166.7-397.4 15.5-37.1 37.9-90.5 49.7-118.5 30-71.2 75.6-179.9 115.1-274.5 7.7-18.4 20-47.9 27.5-65.5 51.4-122.4 75.8-180.8 77.6-186.2 5.7-17 4.3-33-4.2-47.6-3.5-6-14.4-15.9-20.9-19.1-11.4-5.5-25.4-7-36.7-4zM1313 457.5c0 .6-30.1 72.8-54.2 130-8.8 20.9-20.7 49-26.3 62.5-5.6 13.5-18 42.9-27.5 65.5-9.5 22.5-22.3 53.3-28.6 68.3-6.3 14.9-16.6 39.7-23 55-6.4 15.2-19.6 46.8-29.4 70.2-9.8 23.4-29.9 71.3-44.7 106.5-14.8 35.2-42.2 100.4-60.8 144.9-24.9 59.2-34.1 80.4-34.7 79-.4-1.1-3-12.5-5.7-25.4-4.6-21.7-21.6-100.5-41.1-191-17.3-80.5-23.8-111.9-24.8-121-.9-7.7-1.9-11-5.1-17.5-5.7-11.4-15.3-20.7-26.6-25.5-3.5-1.5-59.3-14.5-75-17.4-1.6-.4-4.2-.8-5.7-1.1-1.5-.3-15.9-3.4-32-6.9-16.1-3.6-30.6-6.7-32.3-7-1.6-.3-18.7-4-38-8.1-19.2-4.2-49.6-10.8-67.5-14.6-74.3-16-93.5-20.2-94.2-20.8-.4-.4 23.4-10.7 53-23.1 29.5-12.3 86.8-36.3 127.2-53.3 113.6-47.8 169.6-71.3 217.5-91.2 24.2-10 78.2-32.7 120-50.3 41.8-17.6 94.9-39.9 118-49.6 23.1-9.6 63.8-26.7 90.5-38 45.8-19.3 51-21.3 51-20.1z" fill="#fff"/></svg>